<svg width="162" height="28" viewBox="0 0 162 28" fill="none" xmlns="http://www.w3.org/2000/svg">
<path d="M25.6788 14.184C25.6788 16.056 25.3788 17.796 24.7788 19.404C24.1788 21.012 23.3388 22.416 22.2588 23.616C21.1788 24.792 19.8708 25.728 18.3348 26.424C16.8228 27.096 15.1428 27.432 13.2948 27.432C11.4468 27.432 9.76683 27.096 8.25483 26.424C6.74283 25.728 5.43483 24.792 4.33083 23.616C3.25083 22.416 2.41083 21.012 1.81083 19.404C1.21083 17.796 0.910828 16.056 0.910828 14.184C0.910828 12.312 1.21083 10.572 1.81083 8.964C2.41083 7.332 3.25083 5.928 4.33083 4.752C5.43483 3.552 6.74283 2.616 8.25483 1.944C9.76683 1.272 11.4468 0.935999 13.2948 0.935999C15.0948 0.935999 16.7508 1.284 18.2628 1.98C19.7988 2.676 21.1068 3.624 22.1868 4.824C23.2908 6.024 24.1428 7.428 24.7428 9.036C25.3668 10.644 25.6788 12.36 25.6788 14.184ZM20.0628 14.184C20.0628 13.104 19.9188 12.06 19.6308 11.052C19.3428 10.044 18.9108 9.168 18.3348 8.424C17.7828 7.656 17.0748 7.044 16.2108 6.588C15.3708 6.132 14.3988 5.904 13.2948 5.904C12.1668 5.904 11.1828 6.132 10.3428 6.588C9.50283 7.044 8.79483 7.656 8.21883 8.424C7.66683 9.168 7.24683 10.044 6.95883 11.052C6.67083 12.06 6.52683 13.104 6.52683 14.184C6.52683 15.288 6.65883 16.344 6.92283 17.352C7.21083 18.336 7.63083 19.212 8.18283 19.98C8.75883 20.724 9.46683 21.324 10.3068 21.78C11.1468 22.236 12.1428 22.464 13.2948 22.464C14.4468 22.464 15.4428 22.236 16.2828 21.78C17.1228 21.324 17.8188 20.724 18.3708 19.98C18.9468 19.212 19.3668 18.336 19.6308 17.352C19.9188 16.344 20.0628 15.288 20.0628 14.184ZM32.8673 24.552C32.8673 25.416 32.6273 26.112 32.1473 26.64C31.6673 27.168 31.0433 27.432 30.2753 27.432C29.5073 27.432 28.8833 27.168 28.4033 26.64C27.9233 26.112 27.6833 25.416 27.6833 24.552V3.852C27.6833 2.988 27.9233 2.292 28.4033 1.764C28.8833 1.236 29.5073 0.971998 30.2753 0.971998C31.0433 0.971998 31.6673 1.236 32.1473 1.764C32.6273 2.292 32.8673 2.988 32.8673 3.852V24.552ZM50.6038 23.868C50.6038 24.54 50.3638 25.104 49.8838 25.56C49.4038 26.016 48.8158 26.388 48.1198 26.676C47.4478 26.94 46.7518 27.132 46.0318 27.252C45.3118 27.372 44.7238 27.432 44.2678 27.432C42.8758 27.432 41.6038 27.168 40.4518 26.64C39.3238 26.112 38.3518 25.392 37.5358 24.48C36.7198 23.568 36.0838 22.512 35.6278 21.312C35.1958 20.088 34.9798 18.804 34.9798 17.46C34.9798 16.14 35.2078 14.88 35.6638 13.68C36.1198 12.456 36.7558 11.388 37.5718 10.476C38.3878 9.54 39.3598 8.796 40.4878 8.244C41.6398 7.692 42.8998 7.416 44.2678 7.416C44.7718 7.416 45.3838 7.476 46.1038 7.596C46.8478 7.692 47.5438 7.872 48.1918 8.136C48.8638 8.376 49.4278 8.712 49.8838 9.144C50.3638 9.552 50.6038 10.068 50.6038 10.692C50.6038 10.956 50.5558 11.244 50.4598 11.556C50.3638 11.844 50.2318 12.108 50.0638 12.348C49.8958 12.588 49.6918 12.792 49.4518 12.96C49.2118 13.104 48.9358 13.176 48.6238 13.176C48.2878 13.176 47.9638 13.128 47.6518 13.032C47.3398 12.912 47.0158 12.792 46.6798 12.672C46.3678 12.552 46.0318 12.444 45.6718 12.348C45.3118 12.228 44.9278 12.168 44.5198 12.168C43.7758 12.168 43.1278 12.324 42.5758 12.636C42.0478 12.924 41.6038 13.32 41.2438 13.824C40.8838 14.304 40.6078 14.868 40.4158 15.516C40.2478 16.14 40.1638 16.788 40.1638 17.46C40.1638 18.108 40.2598 18.744 40.4518 19.368C40.6438 19.992 40.9198 20.556 41.2798 21.06C41.6638 21.54 42.1198 21.936 42.6478 22.248C43.1998 22.536 43.8238 22.68 44.5198 22.68C44.8558 22.68 45.2158 22.632 45.5998 22.536C45.9838 22.416 46.3558 22.284 46.7158 22.14C47.0758 21.996 47.3998 21.876 47.6878 21.78C47.9998 21.66 48.2278 21.6 48.3718 21.6C48.9958 21.6 49.5238 21.828 49.9558 22.284C50.3878 22.716 50.6038 23.244 50.6038 23.868ZM69.4638 24.552C69.4638 25.416 69.2238 26.112 68.7438 26.64C68.2638 27.168 67.6398 27.432 66.8718 27.432C66.1038 27.432 65.4798 27.168 64.9998 26.64C64.5198 26.112 64.2798 25.416 64.2798 24.552V15.3C64.2798 14.076 63.9438 13.176 63.2718 12.6C62.6238 12.024 61.8318 11.736 60.8958 11.736C59.8158 11.736 58.9878 12.084 58.4118 12.78C57.8598 13.452 57.5838 14.292 57.5838 15.3V24.552C57.5838 25.416 57.3438 26.112 56.8638 26.64C56.3838 27.168 55.7598 27.432 54.9918 27.432C54.2238 27.432 53.5998 27.168 53.1198 26.64C52.6398 26.112 52.3998 25.416 52.3998 24.552V3.852C52.3998 2.988 52.6398 2.292 53.1198 1.764C53.5998 1.236 54.2238 0.971998 54.9918 0.971998C55.7598 0.971998 56.3838 1.236 56.8638 1.764C57.3438 2.292 57.5838 2.988 57.5838 3.852V9.216H57.6558C57.9438 8.88 58.2678 8.604 58.6278 8.388C59.0118 8.148 59.4078 7.956 59.8158 7.812C60.2478 7.668 60.6798 7.572 61.1118 7.524C61.5438 7.452 61.9638 7.416 62.3718 7.416C63.3798 7.416 64.3158 7.572 65.1798 7.884C66.0678 8.196 66.8238 8.652 67.4478 9.252C68.0718 9.852 68.5638 10.584 68.9238 11.448C69.2838 12.312 69.4638 13.296 69.4638 14.4V24.552ZM88.7477 24.66C88.7477 25.428 88.5197 26.088 88.0637 26.64C87.6077 27.168 86.9957 27.432 86.2277 27.432C85.6757 27.432 85.1717 27.288 84.7157 27C84.2837 26.688 83.9717 26.124 83.7797 25.308C83.5637 25.668 83.2637 25.98 82.8797 26.244C82.5197 26.508 82.1117 26.736 81.6557 26.928C81.2237 27.096 80.7677 27.216 80.2877 27.288C79.8077 27.384 79.3517 27.432 78.9197 27.432C77.8637 27.432 76.8917 27.3 76.0037 27.036C75.1397 26.772 74.3957 26.388 73.7717 25.884C73.1477 25.356 72.6557 24.708 72.2957 23.94C71.9357 23.148 71.7557 22.248 71.7557 21.24C71.7557 19.752 72.1397 18.564 72.9077 17.676C73.6997 16.788 74.6837 16.116 75.8597 15.66C77.0357 15.18 78.3077 14.868 79.6757 14.724C81.0677 14.58 82.3637 14.508 83.5637 14.508V13.104C83.5637 12.6 83.3597 12.252 82.9517 12.06C82.5677 11.844 82.0157 11.736 81.2957 11.736C80.5517 11.736 79.9397 11.832 79.4597 12.024C78.9797 12.192 78.5597 12.396 78.1997 12.636C77.8637 12.852 77.5517 13.056 77.2637 13.248C76.9997 13.416 76.6997 13.5 76.3637 13.5C75.5477 13.5 74.9597 13.272 74.5997 12.816C74.2637 12.336 74.0957 11.832 74.0957 11.304C74.0957 10.776 74.3237 10.284 74.7797 9.828C75.2597 9.348 75.8477 8.928 76.5437 8.568C77.2637 8.208 78.0437 7.932 78.8837 7.74C79.7237 7.524 80.5277 7.416 81.2957 7.416C83.6957 7.416 85.5317 7.92 86.8037 8.928C88.0997 9.912 88.7477 11.34 88.7477 13.212V24.66ZM83.7797 18.396C82.9877 18.396 82.1717 18.396 81.3317 18.396C80.5157 18.396 79.7597 18.48 79.0637 18.648C78.3917 18.792 77.8277 19.068 77.3717 19.476C76.9397 19.86 76.7237 20.448 76.7237 21.24C76.7237 21.6 76.8077 21.9 76.9757 22.14C77.1677 22.38 77.4077 22.572 77.6957 22.716C78.0077 22.86 78.3437 22.968 78.7037 23.04C79.0877 23.088 79.4717 23.112 79.8557 23.112C81.2237 23.112 82.2197 22.776 82.8437 22.104C83.4677 21.432 83.7797 20.472 83.7797 19.224V18.396ZM119.954 19.188C119.954 20.46 119.75 21.588 119.342 22.572C118.934 23.532 118.358 24.348 117.614 25.02C116.894 25.668 116.018 26.16 114.986 26.496C113.978 26.832 112.85 27 111.602 27H104.186C103.346 27 102.65 26.76 102.098 26.28C101.57 25.776 101.306 25.104 101.306 24.264V4.068C101.306 3.204 101.57 2.544 102.098 2.088C102.626 1.608 103.31 1.368 104.15 1.368H111.062C111.998 1.368 112.874 1.524 113.69 1.836C114.53 2.124 115.25 2.544 115.85 3.096C116.474 3.648 116.954 4.32 117.29 5.112C117.65 5.88 117.83 6.744 117.83 7.704C117.83 9 117.554 10.068 117.002 10.908C116.474 11.748 115.634 12.444 114.482 12.996V13.068C115.226 13.164 115.934 13.392 116.606 13.752C117.278 14.112 117.854 14.568 118.334 15.12C118.838 15.648 119.234 16.26 119.522 16.956C119.81 17.652 119.954 18.396 119.954 19.188ZM112.43 8.676C112.43 7.836 112.142 7.2 111.566 6.768C110.99 6.336 110.306 6.12 109.514 6.12H106.706V11.52H109.514C110.402 11.52 111.11 11.28 111.638 10.8C112.166 10.296 112.43 9.588 112.43 8.676ZM114.338 19.116C114.338 18.276 114.026 17.592 113.402 17.064C112.778 16.536 111.818 16.272 110.522 16.272H106.706V22.248H110.954C111.962 22.248 112.778 21.984 113.402 21.456C114.026 20.904 114.338 20.124 114.338 19.116ZM139.401 24.624C139.401 25.464 139.137 26.076 138.609 26.46C138.105 26.82 137.505 27 136.809 27H124.785C123.993 27 123.321 26.82 122.769 26.46C122.241 26.076 121.977 25.464 121.977 24.624C121.977 24.24 122.061 23.892 122.229 23.58C122.421 23.268 122.613 23.004 122.805 22.788C124.317 20.988 125.841 19.248 127.377 17.568C128.937 15.864 130.401 14.016 131.769 12.024C132.105 11.544 132.393 11.028 132.633 10.476C132.897 9.924 133.029 9.324 133.029 8.676C133.029 7.932 132.777 7.284 132.273 6.732C131.793 6.18 131.181 5.904 130.437 5.904C129.741 5.904 129.201 6.048 128.817 6.336C128.433 6.624 128.121 6.984 127.881 7.416C127.665 7.848 127.485 8.316 127.341 8.82C127.221 9.324 127.065 9.792 126.873 10.224C126.705 10.656 126.465 11.016 126.153 11.304C125.841 11.592 125.397 11.736 124.821 11.736C123.957 11.736 123.297 11.472 122.841 10.944C122.409 10.416 122.193 9.804 122.193 9.108C122.193 7.98 122.421 6.924 122.877 5.94C123.357 4.932 123.981 4.068 124.749 3.348C125.541 2.604 126.441 2.016 127.449 1.584C128.481 1.152 129.549 0.935999 130.653 0.935999C131.757 0.935999 132.789 1.116 133.749 1.476C134.733 1.812 135.585 2.304 136.305 2.952C137.025 3.6 137.589 4.392 137.997 5.328C138.429 6.24 138.645 7.272 138.645 8.424C138.645 9.672 138.333 10.92 137.709 12.168C137.109 13.392 136.365 14.592 135.477 15.768C134.589 16.944 133.641 18.084 132.633 19.188C131.649 20.268 130.773 21.288 130.005 22.248H136.593C137.385 22.248 138.045 22.44 138.573 22.824C139.125 23.184 139.401 23.784 139.401 24.624ZM161.297 19.188C161.297 20.46 161.093 21.588 160.685 22.572C160.277 23.532 159.701 24.348 158.957 25.02C158.237 25.668 157.361 26.16 156.329 26.496C155.321 26.832 154.193 27 152.945 27H145.529C144.689 27 143.993 26.76 143.441 26.28C142.913 25.776 142.649 25.104 142.649 24.264V4.068C142.649 3.204 142.913 2.544 143.441 2.088C143.969 1.608 144.653 1.368 145.493 1.368H152.405C153.341 1.368 154.217 1.524 155.033 1.836C155.873 2.124 156.593 2.544 157.193 3.096C157.817 3.648 158.297 4.32 158.633 5.112C158.993 5.88 159.173 6.744 159.173 7.704C159.173 9 158.897 10.068 158.345 10.908C157.817 11.748 156.977 12.444 155.825 12.996V13.068C156.569 13.164 157.277 13.392 157.949 13.752C158.621 14.112 159.197 14.568 159.677 15.12C160.181 15.648 160.577 16.26 160.865 16.956C161.153 17.652 161.297 18.396 161.297 19.188ZM153.773 8.676C153.773 7.836 153.485 7.2 152.909 6.768C152.333 6.336 151.649 6.12 150.857 6.12H148.049V11.52H150.857C151.745 11.52 152.453 11.28 152.981 10.8C153.509 10.296 153.773 9.588 153.773 8.676ZM155.681 19.116C155.681 18.276 155.369 17.592 154.745 17.064C154.121 16.536 153.161 16.272 151.865 16.272H148.049V22.248H152.297C153.305 22.248 154.121 21.984 154.745 21.456C155.369 20.904 155.681 20.124 155.681 19.116Z" fill="#DA002B"/>
</svg>
