<svg width="34" height="47" viewBox="0 0 34 47" fill="none" xmlns="http://www.w3.org/2000/svg">
<path fill-rule="evenodd" clip-rule="evenodd" d="M7.66357 16.7149C7.13256 16.8234 6.64418 17.1118 5.87709 17.7698C4.28496 19.1354 2.76643 21.1436 1.82644 23.1267C-1.72662 30.6219 0.758304 39.5737 7.67596 44.1991C9.63779 45.5108 11.9722 46.4259 14.442 46.8514C15.6912 47.0666 18.5207 47.0444 19.8102 46.8092C25.8617 45.7056 30.7215 41.6579 32.8091 35.9825C33.4197 34.3225 33.7063 32.803 33.7751 30.8605C33.927 26.5703 32.5305 22.6304 29.6913 19.3396C28.858 18.3737 27.6376 17.2627 27.0981 16.9785C25.7869 16.288 24.1296 16.8301 23.4726 18.1643C23.2784 18.5586 23.2461 18.7236 23.2468 19.3156C23.248 20.3412 23.3701 20.5486 24.8151 21.9788C26.1238 23.2743 26.6411 23.9572 27.2734 25.2242C28.0961 26.8726 28.4537 28.4088 28.4531 30.2914C28.4519 33.4529 27.3535 36.0805 25.0855 38.3476C22.854 40.578 20.1592 41.6951 17.0098 41.6951C15.6208 41.6951 14.6438 41.5446 13.4515 41.1467C11.6541 40.5469 10.2756 39.6933 8.93445 38.3496C7.22639 36.6384 6.27491 34.8911 5.74169 32.4865C5.49412 31.37 5.49502 29.2831 5.74357 28.1316C6.32545 25.4362 7.47127 23.4815 9.57159 21.6012C10.5533 20.7224 10.7737 20.3034 10.7737 19.3156C10.7737 18.712 10.7433 18.5649 10.5338 18.1524C10.0001 17.1019 8.77426 16.488 7.66357 16.7149Z" fill="#DA002B"/>
<path d="M5.28429 4.72003C7.35555 2.01248 9.66792 0.475482 12.3104 0.0497805C12.5702 0.00787874 13.3399 -0.0113603 14.0207 0.00690041C15.4816 0.0460304 16.6684 0.269642 18.1363 0.782246C19.1605 1.13988 21.0487 2.02699 21.0487 2.15049C21.0487 2.27424 20.4716 3.30483 20.0126 4.00061C18.3375 6.54039 16.3007 8.33646 14.1686 9.15387C12.9778 9.61047 12.3946 9.70633 10.8262 9.70332C9.38288 9.70047 8.68615 9.60778 7.39205 9.24648C5.9311 8.83863 3.55859 7.78978 3.55859 7.55174C3.55859 7.34753 4.67221 5.52016 5.28429 4.72003Z" fill="#12BF6C"/>
<path d="M18.432 8.98308C20.4853 6.04222 24.0085 2.39465 25.2016 1.97465C26.3656 1.56485 27.7292 2.10427 28.3418 3.21687C28.5371 3.57165 28.5905 3.77765 28.6195 4.28993C28.6816 5.38467 28.3928 5.96436 27.3262 6.88555C24.4262 9.39028 21.749 12.9466 20.4459 16.0249C19.2756 18.79 18.8283 20.855 18.7597 23.8102C18.7097 25.9719 18.8122 27.0437 19.2208 28.6293C19.6354 30.238 19.6592 30.4439 19.5005 31.0424C18.8693 33.4224 15.6002 33.7294 14.6203 31.5007C14.4984 31.2234 14.2794 30.4984 14.1336 29.8897C12.9408 24.9083 13.4138 19.3781 15.4553 14.4345C16.1745 12.6932 17.3687 10.5061 18.432 8.98308Z" fill="#12BF6C"/>
</svg>
