<svg width="40" height="40" viewBox="0 0 40 40" fill="none" xmlns="http://www.w3.org/2000/svg">
<g filter="url(#filter0_ii_15222_22834)">
<rect x="1" width="40" height="40" rx="10" fill="url(#paint0_linear_15222_22834)"/>
<rect x="1" width="40" height="40" rx="10" fill="url(#paint1_linear_15222_22834)" fill-opacity="0.2" style="mix-blend-mode:soft-light"/>
</g>
<g filter="url(#filter1_dii_15222_22834)">
<path d="M21 30C16.286 30 13.9289 30 12.4645 28.5355C11 27.0711 11 24.714 11 20C11 15.286 11 12.9289 12.4645 11.4645C13.9289 10 16.286 10 21 10C25.714 10 28.0711 10 29.5355 11.4645C31 12.9289 31 15.286 31 20C31 24.714 31 27.0711 29.5355 28.5355C28.0711 30 25.714 30 21 30Z" fill="white"/>
</g>
<g filter="url(#filter2_dii_15222_22834)">
<path d="M16 22.25C16.4142 22.25 16.75 22.5858 16.75 23V26C16.75 26.4142 16.4142 26.75 16 26.75C15.5858 26.75 15.25 26.4142 15.25 26V23C15.25 22.5858 15.5858 22.25 16 22.25Z" fill="#FF8E8E"/>
<path d="M21 19.25C21.4142 19.25 21.75 19.5858 21.75 20V26C21.75 26.4142 21.4142 26.75 21 26.75C20.5858 26.75 20.25 26.4142 20.25 26V20C20.25 19.5858 20.5858 19.25 21 19.25Z" fill="#FF8E8E"/>
<path d="M26 16.25C26.4142 16.25 26.75 16.5858 26.75 17V26C26.75 26.4142 26.4142 26.75 26 26.75C25.5858 26.75 25.25 26.4142 25.25 26V17C25.25 16.5858 25.5858 16.25 26 16.25Z" fill="#FF8E8E"/>
</g>
<defs>
<filter id="filter0_ii_15222_22834" x="0.562961" y="-0.437039" width="40.8741" height="40.8741" filterUnits="userSpaceOnUse" color-interpolation-filters="sRGB">
<feFlood flood-opacity="0" result="BackgroundImageFix"/>
<feBlend mode="normal" in="SourceGraphic" in2="BackgroundImageFix" result="shape"/>
<feColorMatrix in="SourceAlpha" type="matrix" values="0 0 0 0 0 0 0 0 0 0 0 0 0 0 0 0 0 0 127 0" result="hardAlpha"/>
<feOffset dx="0.437039" dy="0.437039"/>
<feGaussianBlur stdDeviation="0.218519"/>
<feComposite in2="hardAlpha" operator="arithmetic" k2="-1" k3="1"/>
<feColorMatrix type="matrix" values="0 0 0 0 1 0 0 0 0 1 0 0 0 0 1 0 0 0 0.2 0"/>
<feBlend mode="normal" in2="shape" result="effect1_innerShadow_15222_22834"/>
<feColorMatrix in="SourceAlpha" type="matrix" values="0 0 0 0 0 0 0 0 0 0 0 0 0 0 0 0 0 0 127 0" result="hardAlpha"/>
<feOffset dx="-0.437039" dy="-0.437039"/>
<feGaussianBlur stdDeviation="0.218519"/>
<feComposite in2="hardAlpha" operator="arithmetic" k2="-1" k3="1"/>
<feColorMatrix type="matrix" values="0 0 0 0 0 0 0 0 0 0 0 0 0 0 0 0 0 0 0.05 0"/>
<feBlend mode="normal" in2="effect1_innerShadow_15222_22834" result="effect2_innerShadow_15222_22834"/>
</filter>
<filter id="filter1_dii_15222_22834" x="0.42366" y="5.19257" width="41.1527" height="41.1527" filterUnits="userSpaceOnUse" color-interpolation-filters="sRGB">
<feFlood flood-opacity="0" result="BackgroundImageFix"/>
<feColorMatrix in="SourceAlpha" type="matrix" values="0 0 0 0 0 0 0 0 0 0 0 0 0 0 0 0 0 0 127 0" result="hardAlpha"/>
<feOffset dy="5.76891"/>
<feGaussianBlur stdDeviation="5.28817"/>
<feColorMatrix type="matrix" values="0 0 0 0 0.816667 0 0 0 0 0.172112 0 0 0 0 0.030625 0 0 0 0.25 0"/>
<feBlend mode="normal" in2="BackgroundImageFix" result="effect1_dropShadow_15222_22834"/>
<feBlend mode="normal" in="SourceGraphic" in2="effect1_dropShadow_15222_22834" result="shape"/>
<feColorMatrix in="SourceAlpha" type="matrix" values="0 0 0 0 0 0 0 0 0 0 0 0 0 0 0 0 0 0 127 0" result="hardAlpha"/>
<feOffset dy="-3.84594"/>
<feGaussianBlur stdDeviation="2.40371"/>
<feComposite in2="hardAlpha" operator="arithmetic" k2="-1" k3="1"/>
<feColorMatrix type="matrix" values="0 0 0 0 1 0 0 0 0 0.78 0 0 0 0 0 0 0 0 0.29 0"/>
<feBlend mode="normal" in2="shape" result="effect2_innerShadow_15222_22834"/>
<feColorMatrix in="SourceAlpha" type="matrix" values="0 0 0 0 0 0 0 0 0 0 0 0 0 0 0 0 0 0 127 0" result="hardAlpha"/>
<feOffset dy="-1.44223"/>
<feGaussianBlur stdDeviation="0.961485"/>
<feComposite in2="hardAlpha" operator="arithmetic" k2="-1" k3="1"/>
<feColorMatrix type="matrix" values="0 0 0 0 1 0 0 0 0 1 0 0 0 0 1 0 0 0 0.75 0"/>
<feBlend mode="normal" in2="effect2_innerShadow_15222_22834" result="effect3_innerShadow_15222_22834"/>
</filter>
<filter id="filter2_dii_15222_22834" x="11.192" y="14.6268" width="19.6159" height="18.6159" filterUnits="userSpaceOnUse" color-interpolation-filters="sRGB">
<feFlood flood-opacity="0" result="BackgroundImageFix"/>
<feColorMatrix in="SourceAlpha" type="matrix" values="0 0 0 0 0 0 0 0 0 0 0 0 0 0 0 0 0 0 127 0" result="hardAlpha"/>
<feOffset dy="2.43478"/>
<feGaussianBlur stdDeviation="2.02899"/>
<feColorMatrix type="matrix" values="0 0 0 0 0.8625 0 0 0 0 0 0 0 0 0 0 0 0 0 0.25 0"/>
<feBlend mode="normal" in2="BackgroundImageFix" result="effect1_dropShadow_15222_22834"/>
<feBlend mode="normal" in="SourceGraphic" in2="effect1_dropShadow_15222_22834" result="shape"/>
<feColorMatrix in="SourceAlpha" type="matrix" values="0 0 0 0 0 0 0 0 0 0 0 0 0 0 0 0 0 0 127 0" result="hardAlpha"/>
<feOffset dy="-1.21739"/>
<feGaussianBlur stdDeviation="0.811594"/>
<feComposite in2="hardAlpha" operator="arithmetic" k2="-1" k3="1"/>
<feColorMatrix type="matrix" values="0 0 0 0 0.925 0 0 0 0 0.320667 0 0 0 0 0.0616667 0 0 0 0.35 0"/>
<feBlend mode="normal" in2="shape" result="effect2_innerShadow_15222_22834"/>
<feColorMatrix in="SourceAlpha" type="matrix" values="0 0 0 0 0 0 0 0 0 0 0 0 0 0 0 0 0 0 127 0" result="hardAlpha"/>
<feOffset dy="-0.405797"/>
<feGaussianBlur stdDeviation="0.405797"/>
<feComposite in2="hardAlpha" operator="arithmetic" k2="-1" k3="1"/>
<feColorMatrix type="matrix" values="0 0 0 0 1 0 0 0 0 1 0 0 0 0 1 0 0 0 0.75 0"/>
<feBlend mode="normal" in2="effect2_innerShadow_15222_22834" result="effect3_innerShadow_15222_22834"/>
</filter>
<linearGradient id="paint0_linear_15222_22834" x1="21" y1="0" x2="21" y2="40" gradientUnits="userSpaceOnUse">
<stop stop-color="#FADB7E"/>
<stop offset="1" stop-color="#FADB7E"/>
</linearGradient>
<linearGradient id="paint1_linear_15222_22834" x1="21" y1="0" x2="21" y2="40" gradientUnits="userSpaceOnUse">
<stop offset="0.328125" stop-color="white"/>
<stop offset="1" stop-opacity="0.1"/>
</linearGradient>
</defs>
</svg>
