<svg width="40" height="40" viewBox="0 0 40 40" fill="none" xmlns="http://www.w3.org/2000/svg">
<g filter="url(#filter0_ii_15222_22829)">
<rect width="40" height="40" rx="10" fill="url(#paint0_linear_15222_22829)"/>
<rect width="40" height="40" rx="10" fill="url(#paint1_linear_15222_22829)" fill-opacity="0.2" style="mix-blend-mode:soft-light"/>
</g>
<g filter="url(#filter1_dii_15222_22829)">
<path d="M17.5924 11.2003C17.3489 11.4078 17.2271 11.5116 17.0971 11.5987C16.799 11.7985 16.4642 11.9372 16.1121 12.0067C15.9585 12.037 15.799 12.0498 15.4801 12.0752L15.4801 12.0752C14.6787 12.1392 14.278 12.1712 13.9437 12.2892C13.1705 12.5623 12.5623 13.1705 12.2892 13.9437C12.1712 14.278 12.1392 14.6787 12.0752 15.4801L12.0752 15.4801C12.0498 15.799 12.037 15.9585 12.0067 16.1121C11.9372 16.4642 11.7985 16.799 11.5987 17.0971C11.5116 17.2271 11.4078 17.3489 11.2003 17.5924L11.2003 17.5924C10.6788 18.2043 10.4181 18.5102 10.2652 18.8301C9.91159 19.57 9.91159 20.43 10.2652 21.1699C10.4181 21.4898 10.6788 21.7957 11.2003 22.4076L11.2003 22.4076C11.4078 22.6511 11.5116 22.7729 11.5987 22.9029C11.7985 23.201 11.9372 23.5358 12.0067 23.8879C12.037 24.0415 12.0498 24.201 12.0752 24.5199L12.0752 24.5199C12.1392 25.3213 12.1712 25.722 12.2892 26.0563C12.5623 26.8295 13.1705 27.4377 13.9437 27.7108C14.278 27.8288 14.6787 27.8608 15.48 27.9248L15.4801 27.9248C15.799 27.9502 15.9585 27.963 16.1121 27.9933C16.4642 28.0628 16.799 28.2015 17.0971 28.4013C17.2271 28.4884 17.3489 28.5922 17.5924 28.7997C18.2043 29.3212 18.5102 29.5819 18.8301 29.7348C19.57 30.0884 20.43 30.0884 21.1699 29.7348C21.4898 29.5819 21.7957 29.3212 22.4076 28.7997C22.6511 28.5922 22.7729 28.4884 22.9029 28.4013C23.201 28.2015 23.5358 28.0628 23.8879 27.9933C24.0415 27.963 24.201 27.9502 24.5199 27.9248L24.52 27.9248C25.3213 27.8608 25.722 27.8288 26.0563 27.7108C26.8295 27.4377 27.4377 26.8295 27.7108 26.0563C27.8288 25.722 27.8608 25.3213 27.9248 24.52L27.9248 24.5199C27.9502 24.201 27.963 24.0415 27.9933 23.8879C28.0628 23.5358 28.2015 23.201 28.4013 22.9029C28.4884 22.7729 28.5922 22.6511 28.7997 22.4076C29.3212 21.7957 29.5819 21.4898 29.7348 21.1699C30.0884 20.43 30.0884 19.57 29.7348 18.8301C29.5819 18.5102 29.3212 18.2043 28.7997 17.5924C28.5922 17.3489 28.4884 17.2271 28.4013 17.0971C28.2015 16.799 28.0628 16.4642 27.9933 16.1121C27.963 15.9585 27.9502 15.799 27.9248 15.4801L27.9248 15.48C27.8608 14.6787 27.8288 14.278 27.7108 13.9437C27.4377 13.1705 26.8295 12.5623 26.0563 12.2892C25.722 12.1712 25.3213 12.1392 24.5199 12.0752L24.5199 12.0752C24.201 12.0498 24.0415 12.037 23.8879 12.0067C23.5358 11.9372 23.201 11.7985 22.9029 11.5987C22.7729 11.5116 22.6511 11.4078 22.4076 11.2003C21.7957 10.6788 21.4898 10.4181 21.1699 10.2652C20.43 9.91159 19.57 9.91159 18.8301 10.2652C18.5102 10.4181 18.2043 10.6788 17.5924 11.2003L17.5924 11.2003Z" fill="white"/>
</g>
<g filter="url(#filter2_dii_15222_22829)">
<path d="M23.8338 16.17C24.1517 16.4878 24.1517 17.0032 23.8338 17.321L17.3229 23.8319C17.0051 24.1497 16.4898 24.1497 16.172 23.8319C15.8541 23.514 15.8541 22.9987 16.172 22.6809L22.6828 16.17C23.0007 15.8522 23.516 15.8522 23.8338 16.17Z" fill="#15E17F"/>
<path d="M23.8009 22.7138C23.8009 23.3131 23.3151 23.799 22.7158 23.799C22.1164 23.799 21.6306 23.3131 21.6306 22.7138C21.6306 22.1145 22.1164 21.6287 22.7158 21.6287C23.3151 21.6287 23.8009 22.1145 23.8009 22.7138Z" fill="#15E17F"/>
<path d="M17.29 18.3732C17.8893 18.3732 18.3752 17.8874 18.3752 17.2881C18.3752 16.6888 17.8893 16.2029 17.29 16.2029C16.6907 16.2029 16.2049 16.6888 16.2049 17.2881C16.2049 17.8874 16.6907 18.3732 17.29 18.3732Z" fill="#15E17F"/>
</g>
<defs>
<filter id="filter0_ii_15222_22829" x="-0.437039" y="-0.437039" width="40.8741" height="40.8741" filterUnits="userSpaceOnUse" color-interpolation-filters="sRGB">
<feFlood flood-opacity="0" result="BackgroundImageFix"/>
<feBlend mode="normal" in="SourceGraphic" in2="BackgroundImageFix" result="shape"/>
<feColorMatrix in="SourceAlpha" type="matrix" values="0 0 0 0 0 0 0 0 0 0 0 0 0 0 0 0 0 0 127 0" result="hardAlpha"/>
<feOffset dx="0.437039" dy="0.437039"/>
<feGaussianBlur stdDeviation="0.218519"/>
<feComposite in2="hardAlpha" operator="arithmetic" k2="-1" k3="1"/>
<feColorMatrix type="matrix" values="0 0 0 0 1 0 0 0 0 1 0 0 0 0 1 0 0 0 0.2 0"/>
<feBlend mode="normal" in2="shape" result="effect1_innerShadow_15222_22829"/>
<feColorMatrix in="SourceAlpha" type="matrix" values="0 0 0 0 0 0 0 0 0 0 0 0 0 0 0 0 0 0 127 0" result="hardAlpha"/>
<feOffset dx="-0.437039" dy="-0.437039"/>
<feGaussianBlur stdDeviation="0.218519"/>
<feComposite in2="hardAlpha" operator="arithmetic" k2="-1" k3="1"/>
<feColorMatrix type="matrix" values="0 0 0 0 0 0 0 0 0 0 0 0 0 0 0 0 0 0 0.05 0"/>
<feBlend mode="normal" in2="effect1_innerShadow_15222_22829" result="effect2_innerShadow_15222_22829"/>
</filter>
<filter id="filter1_dii_15222_22829" x="0.26087" y="5.13043" width="39.4783" height="39.4783" filterUnits="userSpaceOnUse" color-interpolation-filters="sRGB">
<feFlood flood-opacity="0" result="BackgroundImageFix"/>
<feColorMatrix in="SourceAlpha" type="matrix" values="0 0 0 0 0 0 0 0 0 0 0 0 0 0 0 0 0 0 127 0" result="hardAlpha"/>
<feOffset dy="4.86957"/>
<feGaussianBlur stdDeviation="4.86957"/>
<feColorMatrix type="matrix" values="0 0 0 0 0.0328125 0 0 0 0 0.525 0 0 0 0 0.288557 0 0 0 0.2 0"/>
<feBlend mode="normal" in2="BackgroundImageFix" result="effect1_dropShadow_15222_22829"/>
<feBlend mode="normal" in="SourceGraphic" in2="effect1_dropShadow_15222_22829" result="shape"/>
<feColorMatrix in="SourceAlpha" type="matrix" values="0 0 0 0 0 0 0 0 0 0 0 0 0 0 0 0 0 0 127 0" result="hardAlpha"/>
<feOffset dy="-1.62319"/>
<feGaussianBlur stdDeviation="0.811594"/>
<feComposite in2="hardAlpha" operator="arithmetic" k2="-1" k3="1"/>
<feColorMatrix type="matrix" values="0 0 0 0 0.0823529 0 0 0 0 0.882353 0 0 0 0 0.498039 0 0 0 0.4 0"/>
<feBlend mode="normal" in2="shape" result="effect2_innerShadow_15222_22829"/>
<feColorMatrix in="SourceAlpha" type="matrix" values="0 0 0 0 0 0 0 0 0 0 0 0 0 0 0 0 0 0 127 0" result="hardAlpha"/>
<feOffset dy="-1.21739"/>
<feGaussianBlur stdDeviation="1.62319"/>
<feComposite in2="hardAlpha" operator="arithmetic" k2="-1" k3="1"/>
<feColorMatrix type="matrix" values="0 0 0 0 0.0823529 0 0 0 0 0.882353 0 0 0 0 0.498039 0 0 0 0.2 0"/>
<feBlend mode="normal" in2="effect2_innerShadow_15222_22829" result="effect3_innerShadow_15222_22829"/>
</filter>
<filter id="filter2_dii_15222_22829" x="13.9046" y="14.9577" width="12.1947" height="12.2778" filterUnits="userSpaceOnUse" color-interpolation-filters="sRGB">
<feFlood flood-opacity="0" result="BackgroundImageFix"/>
<feColorMatrix in="SourceAlpha" type="matrix" values="0 0 0 0 0 0 0 0 0 0 0 0 0 0 0 0 0 0 127 0" result="hardAlpha"/>
<feOffset dy="1.13623"/>
<feGaussianBlur stdDeviation="1.01449"/>
<feColorMatrix type="matrix" values="0 0 0 0 0.0823529 0 0 0 0 0.882353 0 0 0 0 0.498039 0 0 0 0.4 0"/>
<feBlend mode="normal" in2="BackgroundImageFix" result="effect1_dropShadow_15222_22829"/>
<feBlend mode="normal" in="SourceGraphic" in2="effect1_dropShadow_15222_22829" result="shape"/>
<feColorMatrix in="SourceAlpha" type="matrix" values="0 0 0 0 0 0 0 0 0 0 0 0 0 0 0 0 0 0 127 0" result="hardAlpha"/>
<feOffset dy="-0.973913"/>
<feGaussianBlur stdDeviation="1.01449"/>
<feComposite in2="hardAlpha" operator="arithmetic" k2="-1" k3="1"/>
<feColorMatrix type="matrix" values="0 0 0 0 0.0823529 0 0 0 0 0.882353 0 0 0 0 0.498039 0 0 0 1 0"/>
<feBlend mode="normal" in2="shape" result="effect2_innerShadow_15222_22829"/>
<feColorMatrix in="SourceAlpha" type="matrix" values="0 0 0 0 0 0 0 0 0 0 0 0 0 0 0 0 0 0 127 0" result="hardAlpha"/>
<feOffset dy="-0.405797"/>
<feGaussianBlur stdDeviation="0.405797"/>
<feComposite in2="hardAlpha" operator="arithmetic" k2="-1" k3="1"/>
<feColorMatrix type="matrix" values="0 0 0 0 1 0 0 0 0 1 0 0 0 0 1 0 0 0 0.4 0"/>
<feBlend mode="normal" in2="effect2_innerShadow_15222_22829" result="effect3_innerShadow_15222_22829"/>
</filter>
<linearGradient id="paint0_linear_15222_22829" x1="20" y1="0" x2="20" y2="40" gradientUnits="userSpaceOnUse">
<stop stop-color="#8FDEA5"/>
<stop offset="1" stop-color="#89E2B7"/>
</linearGradient>
<linearGradient id="paint1_linear_15222_22829" x1="20" y1="0" x2="20" y2="40" gradientUnits="userSpaceOnUse">
<stop offset="0.328125" stop-color="white"/>
<stop offset="1" stop-opacity="0.1"/>
</linearGradient>
</defs>
</svg>
